<svg width="48" height="48" viewBox="0 0 48 48" fill="none" xmlns="http://www.w3.org/2000/svg">
<g filter="url(#filter0_d_24_937)">
<circle cx="24" cy="24" r="20" fill="white"></circle>
</g>
<circle cx="24" cy="24" r="18.5714" fill="#060E9F"></circle>
<path d="M25.9496 25.9047L37.8095 23.814C37.7093 16.2726 31.5657 10.1905 24.0009 10.1905C16.4361 10.1905 10.1904 16.3737 10.1904 24C10.1904 31.6263 16.3731 37.8095 24.0009 37.8095C28.7014 37.8095 32.8524 35.4604 35.3467 31.8733C35.1311 31.9315 34.9117 31.9821 34.6876 32.0221C30.5842 32.7451 26.6726 30.0068 25.9496 25.9047ZM27.6999 18.9193C29.2975 18.638 30.8208 19.7043 31.1022 21.3018L25.3172 22.3214C25.0349 20.7248 26.1022 19.2007 27.6999 18.9193Z" fill="white"></path>
<defs>
<filter id="filter0_d_24_937" x="0" y="0" width="48" height="48" filterUnits="userSpaceOnUse" color-interpolation-filters="sRGB">
<feFlood flood-opacity="0" result="BackgroundImageFix"></feFlood>
<feColorMatrix in="SourceAlpha" type="matrix" values="0 0 0 0 0 0 0 0 0 0 0 0 0 0 0 0 0 0 127 0" result="hardAlpha"></feColorMatrix>
<feOffset></feOffset>
<feGaussianBlur stdDeviation="2"></feGaussianBlur>
<feComposite in2="hardAlpha" operator="out"></feComposite>
<feColorMatrix type="matrix" values="0 0 0 0 0 0 0 0 0 0 0 0 0 0 0 0 0 0 0.25 0"></feColorMatrix>
<feBlend mode="normal" in2="BackgroundImageFix" result="effect1_dropShadow_24_937"></feBlend>
<feBlend mode="normal" in="SourceGraphic" in2="effect1_dropShadow_24_937" result="shape"></feBlend>
</filter>
</defs>
</svg>