<svg width="433" height="131" viewBox="0 0 433 131" fill="none" xmlns="http://www.w3.org/2000/svg">
<g filter="url(#filter0_d_24_422)">
<path d="M20 31H413V114H20V31Z" fill="white"/>
<path d="M190.271 26.4059C186.16 24.2315 181.474 23 176.5 23C171.526 23 166.84 24.2315 162.729 26.4059C158.23 28.7857 153.469 31 148.38 31H142V44H148.245C147.436 46.6918 147 49.5448 147 52.5C147 68.7924 160.208 82 176.5 82C192.792 82 206 68.7924 206 52.5C206 49.5448 205.564 46.6918 204.755 44H208V31H204.62C199.531 31 194.77 28.7857 190.271 26.4059Z" fill="white"/>
<path d="M89.3591 61.3339C88.8476 59.4917 87.773 57.9066 86.2509 56.7496C84.729 55.5925 82.914 54.9809 81.0019 54.9809C79.0887 54.9809 77.2726 55.5933 75.7499 56.752C74.2272 57.9105 73.153 59.4977 72.6429 61.3418L71.4863 65.523C71.1227 66.8379 71.3886 68.2141 72.2163 69.2989C73.0415 70.3804 74.2938 71 75.6537 71H75.6655L86.3578 70.972C87.7184 70.9685 88.9702 70.3445 89.7923 69.2604C90.6142 68.176 90.8771 66.8023 90.5131 65.4911L89.3591 61.3339ZM84.2601 64.4636L81.5571 67.1442C81.4028 67.297 81.2016 67.3735 81.0001 67.3735C80.7986 67.3735 80.5974 67.297 80.4431 67.1442L77.7425 64.4661C76.8149 63.5383 76.8149 62.0329 77.74 61.1076C78.6341 60.2138 80.0694 60.1835 81.0001 61.0167C81.9308 60.1835 83.3663 60.2138 84.2601 61.1076C85.1853 62.0329 85.1853 63.5383 84.2601 64.4636Z" fill="#808080"/>
<path d="M76.7285 54.0844C78.6185 54.0844 80.1562 52.5467 80.1562 50.6567C80.1562 48.7667 78.6185 47.2289 76.7285 47.2289C74.8385 47.2289 73.3008 48.7667 73.3008 50.6567C73.3008 52.5467 74.8385 54.0844 76.7285 54.0844Z" fill="#808080"/>
<path d="M85.2715 54.0844C87.1615 54.0844 88.6992 52.5467 88.6992 50.6567C88.6992 48.7667 87.1615 47.2289 85.2715 47.2289C83.3815 47.2289 81.8438 48.7667 81.8438 50.6567C81.8438 52.5467 83.3815 54.0844 85.2715 54.0844Z" fill="#808080"/>
<path d="M91.5996 52.9243C90.0003 52.9243 88.6992 54.2253 88.6992 55.8246C88.6992 57.424 90.0003 58.725 91.5996 58.725C93.1989 58.725 94.5 57.424 94.5 55.8246C94.5 54.2253 93.1989 52.9243 91.5996 52.9243Z" fill="#808080"/>
<path d="M73.3008 55.8246C73.3008 54.2253 71.9997 52.9243 70.4004 52.9243C68.8011 52.9243 67.5 54.2253 67.5 55.8246C67.5 57.424 68.8011 58.725 70.4004 58.725C71.9997 58.725 73.3008 57.424 73.3008 55.8246Z" fill="#808080"/>
<path d="M67.322 87.24H73.664V88.416H67.322V87.24ZM69.828 87.814L70.724 88.262C70.4907 88.7847 70.2013 89.326 69.856 89.886C69.52 90.446 69.1513 90.9687 68.75 91.454C68.3487 91.9393 67.9473 92.3453 67.546 92.672C67.4807 92.476 67.3873 92.252 67.266 92C67.1447 91.7573 67.0327 91.552 66.93 91.384C67.294 91.1227 67.6627 90.796 68.036 90.404C68.4093 90.0027 68.7547 89.578 69.072 89.13C69.3893 88.6727 69.6413 88.234 69.828 87.814ZM71.032 88.654C71.172 88.7287 71.3773 88.8593 71.648 89.046C71.9187 89.2327 72.2033 89.438 72.502 89.662C72.8007 89.8767 73.076 90.082 73.328 90.278C73.5893 90.4647 73.7713 90.6 73.874 90.684L73.09 91.762C72.95 91.6033 72.7633 91.412 72.53 91.188C72.306 90.9547 72.0633 90.7167 71.802 90.474C71.5407 90.222 71.284 89.9887 71.032 89.774C70.7893 89.55 70.584 89.368 70.416 89.228L71.032 88.654ZM76.128 80.184L77.374 80.394C77.0287 81.094 76.5853 81.7753 76.044 82.438C75.5027 83.1007 74.8307 83.7027 74.028 84.244C73.9347 84.104 73.7993 83.95 73.622 83.782C73.454 83.614 73.3 83.4927 73.16 83.418C73.9067 82.97 74.5227 82.4567 75.008 81.878C75.5027 81.29 75.876 80.7253 76.128 80.184ZM76.184 81.234H78.844V82.27H75.456L76.184 81.234ZM78.508 81.234H78.746L78.97 81.178L79.81 81.514C79.5207 82.5407 79.1053 83.4227 78.564 84.16C78.0227 84.8973 77.3833 85.5133 76.646 86.008C75.9087 86.4933 75.1107 86.8853 74.252 87.184C74.1773 87.044 74.07 86.8853 73.93 86.708C73.7993 86.5213 73.6733 86.3673 73.552 86.246C74.3173 86.022 75.0313 85.6953 75.694 85.266C76.366 84.8273 76.9447 84.2907 77.43 83.656C77.9247 83.012 78.284 82.2747 78.508 81.444V81.234ZM74.714 83.264L75.596 82.606C75.8293 82.7367 76.0673 82.8953 76.31 83.082C76.5527 83.2593 76.7813 83.4413 76.996 83.628C77.22 83.8053 77.4067 83.9733 77.556 84.132L76.618 84.86C76.4873 84.7013 76.3147 84.5287 76.1 84.342C75.8947 84.1553 75.6707 83.9687 75.428 83.782C75.1853 83.586 74.9473 83.4133 74.714 83.264ZM76.632 85.7L77.892 85.924C77.5093 86.6613 77.0007 87.3707 76.366 88.052C75.7313 88.7333 74.938 89.34 73.986 89.872C73.9393 89.7787 73.8647 89.676 73.762 89.564C73.6687 89.452 73.5707 89.3447 73.468 89.242C73.3653 89.1393 73.2673 89.0553 73.174 88.99C73.762 88.6913 74.2753 88.36 74.714 87.996C75.162 87.6227 75.5447 87.24 75.862 86.848C76.1793 86.456 76.436 86.0733 76.632 85.7ZM76.324 86.918H79.236V87.996H75.554L76.324 86.918ZM78.928 86.918H79.18L79.418 86.876L80.244 87.184C79.9267 88.332 79.4553 89.3027 78.83 90.096C78.214 90.8893 77.4767 91.538 76.618 92.042C75.7593 92.546 74.8167 92.938 73.79 93.218C73.7247 93.05 73.6267 92.8587 73.496 92.644C73.3653 92.4293 73.2393 92.2567 73.118 92.126C73.8087 91.9767 74.462 91.762 75.078 91.482C75.694 91.202 76.254 90.8567 76.758 90.446C77.2713 90.026 77.71 89.5407 78.074 88.99C78.4473 88.4393 78.732 87.814 78.928 87.114V86.918ZM74.798 89.074L75.708 88.388C75.9507 88.5373 76.198 88.7193 76.45 88.934C76.702 89.1393 76.94 89.3447 77.164 89.55C77.388 89.746 77.57 89.9327 77.71 90.11L76.73 90.866C76.6087 90.6887 76.4407 90.4973 76.226 90.292C76.0113 90.0773 75.778 89.8627 75.526 89.648C75.274 89.4333 75.0313 89.242 74.798 89.074ZM68.862 83.992V85.126H72.348V83.992H68.862ZM68.862 81.864V82.984H72.348V81.864H68.862ZM67.77 80.786H73.496V86.204H67.77V80.786ZM70.038 81.304H71.088V85.644H71.186V93.176H69.954V85.644H70.038V81.304ZM89.554 80.352H90.884V93.176H89.554V80.352ZM86.236 84.636H94.3V85.882H86.236V84.636ZM85.648 88.08H94.888V89.326H85.648V88.08ZM86.306 81.318L87.426 80.898C87.6033 81.1967 87.7713 81.528 87.93 81.892C88.098 82.2467 88.2473 82.592 88.378 82.928C88.5087 83.264 88.6067 83.5627 88.672 83.824L87.468 84.328C87.4213 84.0667 87.3373 83.7633 87.216 83.418C87.0947 83.0633 86.9547 82.704 86.796 82.34C86.6373 81.976 86.474 81.6353 86.306 81.318ZM93.026 80.786L94.37 81.262C94.202 81.6073 94.0247 81.9667 93.838 82.34C93.6607 82.704 93.4833 83.054 93.306 83.39C93.1287 83.726 92.956 84.0247 92.788 84.286L91.724 83.852C91.8733 83.5813 92.0273 83.2687 92.186 82.914C92.354 82.55 92.508 82.1813 92.648 81.808C92.7973 81.4347 92.9233 81.094 93.026 80.786ZM85.088 80.212L86.32 80.618C86.0027 81.402 85.6293 82.186 85.2 82.97C84.78 83.7447 84.3227 84.4773 83.828 85.168C83.3333 85.8493 82.82 86.4513 82.288 86.974C82.2507 86.862 82.19 86.722 82.106 86.554C82.022 86.386 81.9333 86.218 81.84 86.05C81.7467 85.882 81.658 85.742 81.574 85.63C82.0407 85.1913 82.4887 84.6873 82.918 84.118C83.3567 83.5393 83.7627 82.9187 84.136 82.256C84.5093 81.584 84.8267 80.9027 85.088 80.212ZM83.674 83.936L84.934 82.69L84.948 82.704V93.134H83.674V83.936Z" fill="#808080"/>
<circle cx="177.5" cy="53.5" r="21.5" fill="#FF5000"/>
<path d="M190.975 49.3896L189.448 43.2775C189.26 42.5266 188.585 42.0001 187.811 42.0001H167.191C166.417 42.0001 165.742 42.5266 165.553 43.2775L164.025 49.3896C164.008 49.4554 164 49.5246 164 49.5938C164 51.9192 165.797 53.8126 168.008 53.8126C169.292 53.8126 170.438 53.173 171.172 52.1807C171.906 53.173 173.052 53.8126 174.336 53.8126C175.62 53.8126 176.766 53.173 177.5 52.1807C178.234 53.173 179.378 53.8126 180.664 53.8126C181.95 53.8126 183.094 53.173 183.828 52.1807C184.562 53.173 185.706 53.8126 186.992 53.8126C189.203 53.8126 191 51.9192 191 49.5938C191 49.5246 190.992 49.4554 190.975 49.3896Z" fill="white"/>
<path d="M186.992 55.5001C185.843 55.5001 184.751 55.1491 183.828 54.5078C181.982 55.792 179.346 55.792 177.5 54.5078C175.654 55.792 173.018 55.792 171.172 54.5078C170.249 55.1491 169.157 55.5001 168.008 55.5001C167.179 55.5001 166.398 55.306 165.688 54.9753V63.9376C165.688 64.8691 166.444 65.6251 167.375 65.6251H174.125V58.8751H180.875V65.6251H187.625C188.557 65.6251 189.313 64.8691 189.313 63.9376V54.9753C188.602 55.306 187.821 55.5001 186.992 55.5001Z" fill="white"/>
<path d="M164.704 84.636H175.092V85.714H165.978V93.148H164.704V84.636ZM174.42 84.636H175.652V91.846C175.652 92.154 175.605 92.3873 175.512 92.546C175.419 92.714 175.26 92.84 175.036 92.924C174.803 93.008 174.495 93.0593 174.112 93.078C173.739 93.0967 173.258 93.106 172.67 93.106C172.651 92.9473 172.605 92.7747 172.53 92.588C172.455 92.4013 172.376 92.238 172.292 92.098C172.563 92.1073 172.819 92.112 173.062 92.112C173.314 92.1213 173.533 92.1213 173.72 92.112C173.907 92.112 174.037 92.112 174.112 92.112C174.224 92.112 174.303 92.0887 174.35 92.042C174.397 92.0047 174.42 91.9347 174.42 91.832V84.636ZM168.176 88.108H172.768V91.412H168.176V90.474H171.676V89.06H168.176V88.108ZM167.476 88.108H168.596V92.028H167.476V88.108ZM163.962 81.612H176.366V82.746H163.962V81.612ZM166.93 83.068L168.064 82.69C168.213 82.9327 168.367 83.2033 168.526 83.502C168.694 83.8007 168.825 84.048 168.918 84.244L167.728 84.706C167.644 84.4913 167.523 84.23 167.364 83.922C167.215 83.6047 167.07 83.32 166.93 83.068ZM172.18 82.774L173.524 83.054C173.3 83.4273 173.067 83.8053 172.824 84.188C172.581 84.5707 172.362 84.8927 172.166 85.154L171.13 84.86C171.261 84.664 171.391 84.4447 171.522 84.202C171.653 83.9593 171.774 83.712 171.886 83.46C172.007 83.208 172.105 82.9793 172.18 82.774ZM169.254 80.408L170.5 80.1C170.621 80.38 170.743 80.688 170.864 81.024C170.985 81.36 171.079 81.6493 171.144 81.892L169.842 82.256C169.786 82.0133 169.697 81.7193 169.576 81.374C169.464 81.0193 169.357 80.6973 169.254 80.408ZM168.246 85.196H169.408C169.371 85.7653 169.263 86.2507 169.086 86.652C168.918 87.0533 168.633 87.3847 168.232 87.646C167.84 87.9073 167.285 88.1173 166.566 88.276C166.519 88.1453 166.431 87.9913 166.3 87.814C166.179 87.6273 166.062 87.4827 165.95 87.38C166.557 87.268 167.019 87.1233 167.336 86.946C167.653 86.7687 167.877 86.54 168.008 86.26C168.139 85.9707 168.218 85.616 168.246 85.196ZM170.682 85.224H171.872V86.386C171.872 86.5353 171.886 86.6427 171.914 86.708C171.942 86.7733 172.017 86.806 172.138 86.806C172.185 86.806 172.25 86.806 172.334 86.806C172.427 86.806 172.525 86.806 172.628 86.806C172.74 86.806 172.843 86.806 172.936 86.806C173.029 86.806 173.099 86.806 173.146 86.806C173.249 86.806 173.384 86.8013 173.552 86.792C173.72 86.7733 173.851 86.7547 173.944 86.736C173.953 86.8853 173.963 87.0393 173.972 87.198C173.981 87.3473 174 87.4967 174.028 87.646C173.935 87.674 173.809 87.6973 173.65 87.716C173.491 87.7253 173.333 87.73 173.174 87.73C173.109 87.73 173.015 87.73 172.894 87.73C172.773 87.73 172.642 87.73 172.502 87.73C172.362 87.73 172.231 87.73 172.11 87.73C171.998 87.73 171.914 87.73 171.858 87.73C171.531 87.73 171.284 87.6787 171.116 87.576C170.948 87.4733 170.831 87.324 170.766 87.128C170.71 86.9227 170.682 86.6707 170.682 86.372V85.224ZM185.578 85.056H190.744V86.26H185.578V85.056ZM182.638 91.272H189.428V92.448H182.638V91.272ZM184.934 83.544H186.306V88.696H184.934V83.544ZM181.938 87.884H190.086V92.98H188.728V89.116H183.226V93.008H181.938V87.884ZM180.132 81.822H191.15V83.082H180.132V81.822ZM179.53 81.822H180.888V85.448C180.888 86.008 180.869 86.624 180.832 87.296C180.795 87.9587 180.725 88.64 180.622 89.34C180.519 90.04 180.365 90.7213 180.16 91.384C179.964 92.0467 179.707 92.644 179.39 93.176C179.306 93.1013 179.189 93.0127 179.04 92.91C178.9 92.8073 178.755 92.7093 178.606 92.616C178.457 92.5227 178.326 92.4573 178.214 92.42C178.513 91.916 178.751 91.3653 178.928 90.768C179.105 90.1707 179.236 89.564 179.32 88.948C179.404 88.3227 179.46 87.7113 179.488 87.114C179.516 86.5073 179.53 85.952 179.53 85.448V81.822ZM184.29 80.492L185.606 80.198C185.811 80.4967 185.998 80.828 186.166 81.192C186.334 81.556 186.451 81.878 186.516 82.158L185.116 82.494C185.069 82.214 184.967 81.8873 184.808 81.514C184.649 81.1313 184.477 80.7907 184.29 80.492Z" fill="#FF5000"/>
<path d="M282.879 48.1093C282.465 47.6938 281.913 47.4648 281.327 47.4648H280.353V48.4414C280.353 49.5184 279.478 50.3945 278.402 50.3945H269.623C268.547 50.3945 267.672 49.5184 267.672 48.4414V47.4648H266.694C265.486 47.4648 264.501 48.4494 264.5 49.6597L264.479 68.8003C264.478 69.3876 264.706 69.94 265.12 70.3556C265.535 70.7711 266.087 71 266.673 71H281.306C282.514 71 283.499 70.0154 283.5 68.8052L283.521 49.6646C283.522 49.0772 283.294 48.5249 282.879 48.1093ZM274.249 54.7891H279.447C279.851 54.7891 280.178 55.117 280.178 55.5215C280.178 55.926 279.851 56.2539 279.447 56.2539H274.249C273.845 56.2539 273.517 55.926 273.517 55.5215C273.517 55.117 273.845 54.7891 274.249 54.7891ZM274.249 59.6719H279.447C279.851 59.6719 280.178 59.9998 280.178 60.4043C280.178 60.8088 279.851 61.1367 279.447 61.1367H274.249C273.845 61.1367 273.517 60.8088 273.517 60.4043C273.517 59.9998 273.845 59.6719 274.249 59.6719ZM274.249 64.5547H279.468C279.872 64.5547 280.199 64.8826 280.199 65.2871C280.199 65.6916 279.872 66.0195 279.468 66.0195H274.249C273.845 66.0195 273.517 65.6916 273.517 65.2871C273.517 64.8826 273.845 64.5547 274.249 64.5547ZM268.015 54.818C268.301 54.5319 268.764 54.5319 269.05 54.818L269.448 55.2163L271.135 53.5272C271.421 53.2412 271.884 53.2411 272.169 53.5272C272.455 53.8132 272.455 54.277 272.169 54.563L269.965 56.7699C269.828 56.9073 269.642 56.9845 269.448 56.9845C269.254 56.9845 269.067 56.9073 268.93 56.7699L268.015 55.8537C267.729 55.5677 267.729 55.104 268.015 54.818ZM268.015 60.0737C268.301 59.7876 268.764 59.7876 269.05 60.0737L269.448 60.4719L271.135 58.7829C271.421 58.4969 271.884 58.4969 272.169 58.7829C272.455 59.0688 272.455 59.5326 272.169 59.8187L269.965 62.0256C269.828 62.163 269.642 62.2402 269.448 62.2402C269.254 62.2402 269.067 62.163 268.93 62.0256L268.015 61.1094C267.729 60.8234 267.729 60.3597 268.015 60.0737ZM268.015 64.9565C268.301 64.6705 268.764 64.6705 269.05 64.9565L269.448 65.3547L271.135 63.6657C271.421 63.3797 271.884 63.3797 272.169 63.6657C272.455 63.9517 272.455 64.4154 272.169 64.7015L269.965 66.9084C269.828 67.0458 269.642 67.123 269.448 67.123C269.254 67.123 269.067 67.0458 268.93 66.9084L268.015 65.9922C267.729 65.7063 267.729 65.2425 268.015 64.9565Z" fill="#808080"/>
<path d="M269.135 48.4414C269.135 48.7111 269.353 48.9297 269.623 48.9297H278.402C278.671 48.9297 278.89 48.7111 278.89 48.4414V46.4883C278.89 46.2186 278.671 46 278.402 46H269.623C269.353 46 269.135 46.2186 269.135 46.4883V48.4414Z" fill="#808080"/>
<path d="M270.78 82.9L272.138 83.222C271.998 83.5393 271.853 83.8753 271.704 84.23C271.555 84.5753 271.41 84.9067 271.27 85.224C271.13 85.532 270.99 85.8027 270.85 86.036L269.702 85.728C269.833 85.476 269.963 85.1867 270.094 84.86C270.234 84.524 270.365 84.1833 270.486 83.838C270.607 83.4927 270.705 83.18 270.78 82.9ZM266.034 83.194L267.196 82.942C267.364 83.2967 267.509 83.6887 267.63 84.118C267.761 84.5473 267.845 84.9207 267.882 85.238L266.65 85.518C266.622 85.2007 266.547 84.8273 266.426 84.398C266.314 83.9593 266.183 83.558 266.034 83.194ZM265.67 87.786H272.264V93.12H270.934V88.948H266.958V93.176H265.67V87.786ZM266.356 91.3H271.62V92.49H266.356V91.3ZM264.872 85.518H273.118V86.68H264.872V85.518ZM265.208 81.724H272.754V82.886H265.208V81.724ZM267.938 80.338L269.212 80.114C269.352 80.4127 269.483 80.744 269.604 81.108C269.735 81.4627 269.823 81.766 269.87 82.018L268.526 82.298C268.489 82.0367 268.414 81.724 268.302 81.36C268.19 80.996 268.069 80.6553 267.938 80.338ZM260.658 80.758H263.962V81.948H261.876V93.176H260.658V80.758ZM263.682 80.758H263.906L264.102 80.716L264.998 81.22C264.802 81.7987 264.587 82.4147 264.354 83.068C264.121 83.7213 263.892 84.3233 263.668 84.874C264.144 85.4433 264.457 85.98 264.606 86.484C264.755 86.9787 264.83 87.436 264.83 87.856C264.83 88.276 264.779 88.6353 264.676 88.934C264.583 89.2233 264.433 89.4473 264.228 89.606C264.125 89.6807 264.009 89.7413 263.878 89.788C263.747 89.8347 263.607 89.8673 263.458 89.886C263.169 89.9233 262.856 89.9327 262.52 89.914C262.511 89.746 262.478 89.55 262.422 89.326C262.375 89.102 262.301 88.906 262.198 88.738C262.338 88.7473 262.469 88.752 262.59 88.752C262.711 88.752 262.823 88.752 262.926 88.752C263.094 88.7427 263.234 88.7007 263.346 88.626C263.439 88.5513 263.505 88.4347 263.542 88.276C263.589 88.1173 263.612 87.9307 263.612 87.716C263.612 87.3613 263.537 86.9553 263.388 86.498C263.239 86.0313 262.935 85.532 262.478 85C262.59 84.692 262.702 84.3653 262.814 84.02C262.926 83.6653 263.038 83.3107 263.15 82.956C263.262 82.6013 263.36 82.2653 263.444 81.948C263.537 81.6307 263.617 81.36 263.682 81.136V80.758ZM282.554 80.352H283.884V93.176H282.554V80.352ZM279.236 84.636H287.3V85.882H279.236V84.636ZM278.648 88.08H287.888V89.326H278.648V88.08ZM279.306 81.318L280.426 80.898C280.603 81.1967 280.771 81.528 280.93 81.892C281.098 82.2467 281.247 82.592 281.378 82.928C281.509 83.264 281.607 83.5627 281.672 83.824L280.468 84.328C280.421 84.0667 280.337 83.7633 280.216 83.418C280.095 83.0633 279.955 82.704 279.796 82.34C279.637 81.976 279.474 81.6353 279.306 81.318ZM286.026 80.786L287.37 81.262C287.202 81.6073 287.025 81.9667 286.838 82.34C286.661 82.704 286.483 83.054 286.306 83.39C286.129 83.726 285.956 84.0247 285.788 84.286L284.724 83.852C284.873 83.5813 285.027 83.2687 285.186 82.914C285.354 82.55 285.508 82.1813 285.648 81.808C285.797 81.4347 285.923 81.094 286.026 80.786ZM278.088 80.212L279.32 80.618C279.003 81.402 278.629 82.186 278.2 82.97C277.78 83.7447 277.323 84.4773 276.828 85.168C276.333 85.8493 275.82 86.4513 275.288 86.974C275.251 86.862 275.19 86.722 275.106 86.554C275.022 86.386 274.933 86.218 274.84 86.05C274.747 85.882 274.658 85.742 274.574 85.63C275.041 85.1913 275.489 84.6873 275.918 84.118C276.357 83.5393 276.763 82.9187 277.136 82.256C277.509 81.584 277.827 80.9027 278.088 80.212ZM276.674 83.936L277.934 82.69L277.948 82.704V93.134H276.674V83.936Z" fill="#808080"/>
<path d="M364 44C356.544 44 350.5 50.0442 350.5 57.5C350.5 64.9558 356.544 71 364 71C371.456 71 377.5 64.9558 377.5 57.5C377.5 50.0442 371.456 44 364 44ZM372.641 56.173L368.305 59.3228C368.076 59.4892 367.981 59.7838 368.068 60.0527L369.724 65.1493C369.919 65.7508 369.231 66.2509 368.719 65.8792L364.384 62.7293C364.155 62.563 363.845 62.563 363.616 62.7293L359.281 65.8792C358.769 66.2509 358.081 65.7508 358.276 65.1493L359.932 60.0527C360.02 59.7837 359.924 59.489 359.695 59.3228L355.36 56.173C354.848 55.8012 355.111 54.9919 355.743 54.9919H361.102C361.385 54.9919 361.636 54.8098 361.723 54.5408L363.379 49.4442C363.575 48.8427 364.426 48.8427 364.621 49.4442L366.277 54.5408C366.365 54.8098 366.615 54.9919 366.898 54.9919H372.257C372.889 54.9919 373.152 55.8011 372.641 56.173Z" fill="#808080"/>
<path d="M351.988 81.08H361.424V92.966H359.996V82.424H353.346V93.022H351.988V81.08ZM352.898 85.868H360.598V87.184H352.898V85.868ZM352.884 90.768H360.612V92.098H352.884V90.768ZM372.96 80.212H374.276V86.008H372.96V80.212ZM371.784 87.772H373.016V91.16C373.016 91.3467 373.039 91.468 373.086 91.524C373.133 91.5707 373.24 91.594 373.408 91.594C373.445 91.594 373.506 91.594 373.59 91.594C373.683 91.594 373.786 91.594 373.898 91.594C374.01 91.594 374.113 91.594 374.206 91.594C374.309 91.594 374.383 91.594 374.43 91.594C374.542 91.594 374.626 91.552 374.682 91.468C374.738 91.384 374.78 91.216 374.808 90.964C374.836 90.7027 374.855 90.3107 374.864 89.788C374.995 89.8907 375.167 89.9887 375.382 90.082C375.606 90.166 375.797 90.2313 375.956 90.278C375.919 90.922 375.849 91.4213 375.746 91.776C375.653 92.1307 375.513 92.3733 375.326 92.504C375.139 92.644 374.878 92.714 374.542 92.714C374.486 92.714 374.397 92.714 374.276 92.714C374.155 92.714 374.019 92.714 373.87 92.714C373.73 92.714 373.599 92.714 373.478 92.714C373.357 92.714 373.268 92.714 373.212 92.714C372.829 92.714 372.535 92.6673 372.33 92.574C372.125 92.4807 371.98 92.3173 371.896 92.084C371.821 91.86 371.784 91.5567 371.784 91.174V87.772ZM370.314 88.248L371.378 88.556C371.331 88.9387 371.266 89.3447 371.182 89.774C371.107 90.194 371.009 90.6 370.888 90.992C370.767 91.384 370.613 91.7293 370.426 92.028L369.446 91.328C369.614 91.076 369.754 90.782 369.866 90.446C369.978 90.1007 370.071 89.7413 370.146 89.368C370.221 88.9853 370.277 88.612 370.314 88.248ZM372.4 86.974L373.254 86.26C373.515 86.4187 373.781 86.6053 374.052 86.82C374.332 87.0347 374.589 87.2493 374.822 87.464C375.065 87.6787 375.256 87.884 375.396 88.08L374.486 88.878C374.355 88.6913 374.173 88.486 373.94 88.262C373.716 88.038 373.469 87.814 373.198 87.59C372.927 87.3567 372.661 87.1513 372.4 86.974ZM375.508 88.57L376.516 88.122C376.749 88.458 376.959 88.822 377.146 89.214C377.333 89.5967 377.496 89.9793 377.636 90.362C377.776 90.7447 377.874 91.09 377.93 91.398L376.838 91.888C376.782 91.5893 376.689 91.2487 376.558 90.866C376.427 90.474 376.273 90.0773 376.096 89.676C375.919 89.2747 375.723 88.906 375.508 88.57ZM369.978 82.158H377.664V83.362H369.978V82.158ZM370.244 85.238H377.384V86.442H370.244V85.238ZM365.428 84.426H369.194V85.462H365.428V84.426ZM365.428 86.302H369.194V87.324H365.428V86.302ZM364.896 82.536H369.6V83.6H364.896V82.536ZM365.96 88.192H369.25V92.364H365.96V91.272H368.214V89.27H365.96V88.192ZM365.442 88.192H366.464V92.994H365.442V88.192ZM366.156 80.646L367.164 80.072C367.397 80.352 367.631 80.6647 367.864 81.01C368.097 81.346 368.279 81.6447 368.41 81.906L367.36 82.564C367.239 82.312 367.061 82.004 366.828 81.64C366.604 81.2667 366.38 80.9353 366.156 80.646Z" fill="#808080"/>
</g>
<defs>
<filter id="filter0_d_24_422" x="0" y="0" width="433" height="131" filterUnits="userSpaceOnUse" color-interpolation-filters="sRGB">
<feFlood flood-opacity="0" result="BackgroundImageFix"/>
<feColorMatrix in="SourceAlpha" type="matrix" values="0 0 0 0 0 0 0 0 0 0 0 0 0 0 0 0 0 0 127 0" result="hardAlpha"/>
<feOffset dy="-3"/>
<feGaussianBlur stdDeviation="10"/>
<feColorMatrix type="matrix" values="0 0 0 0 0 0 0 0 0 0 0 0 0 0 0 0 0 0 0.15 0"/>
<feBlend mode="normal" in2="BackgroundImageFix" result="effect1_dropShadow_24_422"/>
<feBlend mode="normal" in="SourceGraphic" in2="effect1_dropShadow_24_422" result="shape"/>
</filter>
</defs>
</svg>
